<svg xmlns="http://www.w3.org/2000/svg" width="96" height="28" viewBox="0 0 96 28">
    <g fill="#FFFFFE" fill-rule="evenodd">
        <path d="M8 22.822v-.567c1.256 0 2.147-.103 2.147-1.907v-9.532C10.147 8.96 9.466 8.91 8 8.91v-.567h7.436v.567c-1.519 0-2.149.051-2.149 1.906v9.532c0 1.804.786 1.907 2.15 1.907v.567H8zm25.607-10.975v11.077h-.89L21.458 11.487c.052.308.052.567.052.875v6.957c0 2.163 0 2.936 1.99 2.936v.567h-5.29v-.567c1.99 0 1.99-.927 1.99-2.936v-7.936c0-1.185 0-2.473-2.094-2.473v-.567h4.975l9.269 9.379c-.052-.258-.052-.414-.052-.774v-5.101c0-2.06.052-2.937-1.938-2.937v-.567h5.29v.567c-1.938 0-2.043.825-2.043 2.937zm18.276 6.08v3.71c-2.095 1.03-4.084 1.546-6.075 1.546-5.498 0-8.797-3.195-8.797-7.214 0-4.328 3.77-7.936 8.59-7.936 1.202 0 2.093.207 3.035.516.682.206 1.1.464 1.519.464.366 0 .47-.618.524-.98h.523l.472 4.998h-.628c-.263-.977-.734-1.802-1.362-2.37-.995-.979-2.356-1.493-3.928-1.493-3.299 0-5.236 2.575-5.236 6.44 0 3.814 2.357 6.44 5.498 6.44.943 0 1.781-.205 2.827-.669v-3.813c0-1.236-.209-1.7-1.99-1.7v-.567h6.652v.566c-1.676 0-1.624.515-1.624 2.061zM62.785 21.826c-.352 0-.252.548-.352.797-.05.05-.102.15-.05.2h.752s.05-.449.05-.548c-.05-.1-.201-.35-.4-.449zm.902-4.083c-.25-.199-.652-.398-1.254-.597-.15-.05-.501 0-.652 0-.402.696-.551 1.344-.853 2.09l-.15.45c-.25-.15-.502-.25-.754-.25-.402 0-.703.15-.852.548-.15-.05-.35-.15-.601-.1-.35.05-.653.25-.804.548-.15.199-.2.398-.15.598-.25.1-.403.348-.502.547-.1.398.252 1.096.402 1.246h.502c-.101-.449-.302-.648-.151-1.096.101-.25.451-.349.552-.399 0-.199-.252-.348-.2-.548.1-.248.4-.248.702-.199-.05.3-.1.697-.15 1.095-.051.45.2 1.147.2 1.147h.551c-.05-.15-.1-.3-.1-.449-.049-.15-.049-.249-.049-.399.049-.199.049-.398.049-.546.502-.25.35.098.45.198 0 0 .203-.448-.049-.647-.05-.05-.351 0-.351-.05s.05-.2.1-.349c.102-.2.151-.248.251-.398.05-.05.2-.05.402 0 .05 0 .302.05.451.1-.05.15-.25.448-.3.598-.2.597-.2 1.294-.15 1.942h.55c0-.35-.05-.748 0-1.096.1-.449.25-.498.302-.498.099 0 .2.099.252.2.098.496-.202.945-.202 1.394h.401s.152-.05.201-.2c.1-.3.3-.599.352-.896.049-.25-.051-.449-.202-.747-.15-.2-.3-.35-.651-.598-.101-.199 0-.448 0-.448 0 .05.2-.05.3-.05.402.1.502.1.702.2.15.05.35.149.502.249.15.1.301.398.451.746 0 0 .1-.647.1-.846-.199-.199-.4-.398-.702-.548-.252-.2-.802-.348-1.053-.449 0 0 .1-.149.1-.248.302-.05.653-.05.803 0 .502.15 1.103.449 1.355.648 0 0 .1-.2.1-.3 0 0-.703-.447-.653-.597-.2-.15-.35-.299-.55-.349-.302-.049-.904-.099-.904-.099s.15-.198.302-.349h.401c.2 0 .701.15 1.002.3.453.198.702.348.753.447.049-.15.1-.348.151-.447-.552-.2-.503-.4-.703-.5zm-1.154-1.395c.05-.149 0-.248.05-.398 0-.099 0-.348.05-.497-.1-.05-.302.05-.45.05-.151 0-.501 0-.501.05.05.1.05.199.099.298.05.1.1.199.1.449 0 .149.05.298 0 .497 0 0 .652-.348.652-.449zm-.601-1.144c.1-.15.399-.448.501-.548-.102-.1-.15-.25-.2-.348-.201 0-.954.298-.954.298.15.249.251.499.351.797.101-.05.2-.1.302-.199zm1.906.25h-.302s-.1.397-.1.696c-.05.15-.1.249-.1.299-.1.199-.15.248-.25.497.15.05.3-.05.4-.05.1-.049.25-.1.302-.148.05-.05.2-.4.25-.498V15.9c-.05-.1 0-.299 0-.448-.05-.1-.15-.05-.2 0zm2.709 3.633c-.05-.05-.05-.15-.102-.248-.099-.3-.048-.449-.099-.746h-.401c-.101.049-.151 0-.251.049 0 .2.05.348.2.597.15.299.653.348.653.348zm-5.216-4.73s.15-.098.15-.2c.25-.298.55-.547.602-.596-.102-.25-.151-.3-.302-.449-.05.05-.3.199-.352.299-.098.05-.2.1-.251.15 0 .1.052.149.1.249 0 .1.053.348.053.547zm3.911 1.743c0-.05-.151-.05-.25-.05-.102 0-.2.05-.303.05-.1.15-.15.299-.2.498-.049.15-.15.249-.201.348 0 0 .453-.099.553-.099.15-.1.25-.15.35-.349.051-.15.102-.198.051-.398zm6.371 3.934c-.1-.05-1.053-.498-1.204-.498-.301.05-.802.05-1.105.2-.049-.15-.098-.4 0-.549.05-.1.553-.1.703-.1.553.05.853.15 1.004.15.15.15.302.15.351.15 0 0-.05-.3-.1-.4-.2-.098-.402-.148-.553-.198-.25-.1-.35-.15-.751-.2-.15 0-.15.05-.451.05 0-.05.05-.1.1-.15.099-.148.201-.247.301-.347h.801c.202.05.302.1.553.2.15 0 0-.25 0-.4-.05-.05-.1-.1-.2-.15-.202-.05-.353-.099-.554-.199-.149-.049-.449-.149-.7-.099-.252.1-.252.05-.454.15-.25.349-.4.746-.55 1.145 0 .1-.251.697-.251.797 0 .05-.05.15-.05.15-.201-.05-1.104-.2-1.354.048-.1.1-.201.2-.353.498-.2-.148-.35-.199-.55-.199a.865.865 0 0 0-.703.398c0 .051-.401.797-.351 1.494.05.4.2.548.401.848h.553c-.05-.2-.152-.449-.252-.748-.05-.249.05-.697.1-1.095 0 0 .152-.1.3-.15.103-.1.151-.05.302-.05.051 0 .051.05.051.05-.202.2-.202.399-.25.697 0 .15.2.897.4 1.296h.402s-.1-.997-.05-1.096c0-.2.05-.349.1-.498.1.05.2.05.3.099.15.1.15.2.15.348 0 .25 0 .3-.048.45v.248c0 .25.049.449.049.449h.403c0-.449.048-.399.099-.648.05-.2 0-.298.05-.448 0-.1.05-.2.102-.25.15-.099.25-.099.45-.048 0 .148 0 .298-.049.448-.052.248-.101.497-.202.746a.37.37 0 0 1-.1.2h.602s.1-.2.15-.449c.149.15.351.05.451.05.152-.05.252-.2.351-.299-.199-.15-.653-.1-.653-.299-.099-.348 0-.397 0-.597 0-.299-.299-.399-.599-.45-.101-.048-.302-.048-.401-.048-.102.049-.203.2-.301.2 0 0-.202-.151-.353-.2-.1 0-.402-.1-.402-.1.051-.099.101-.199.15-.25.05-.048.203-.198.252-.198.101-.05.25 0 .353.05.249.05.45.1.5.1.05 0 .202.1.202.1.148-.1.148-.2.249-.2.3-.1.402-.15.702-.15.252 0 .453.45.602.598.051.099.401.548.603.946.1-.05.15-.15.25-.15 0-.099-.05-.497-.1-.547-.15-.45-.45-.548-.45-.648.098 0 .3.1.4.1.1.05.25.099.4.2.051.049.152.1.202.149.05.2.05.348.15.547 0 .05 0 .1.05.15.151-.299.302-.349.402-.598-.1-.448-.352-.647-.602-.796zm-.401 2.29c-.1.2-.201.398-.201.499h.552c.151-.2.2-.399.1-.698-.15.05-.451-.1-.451.199zm-5.418-4.979c.15-.05.25-.15.402-.2.099-.049.2-.845.2-.845s-.3.048-.352.099c-.05 0-.25 0-.35.1 0 .149 0 .298-.05.497-.1.15-.351.25-.351.498 0 0 .2.05.25.05.101-.05.2-.15.25-.199zm-4.917-5.726v.248c0 .1.051.648.051.797.05.15.05.299.099.448.052.1.102.199.102.299 0 0 .1-.049.15-.15.15-.149.202-.298.302-.497-.05-.348-.152-.647-.152-.747 0-.398.052-.498.101-.747-.2.1-.45.249-.653.35zm6.823 7.07c.05 0 .101-.1.101-.1-.051-.199-.101-.447-.15-.647 0 0-.153-.1-.302-.1-.1 0-.2-.05-.3 0 .05.15.05.25.1.4.15.198.35.297.55.447zm-4.465-5.378c-.05-.1-.2-.15-.3-.199-.1 0-.201.199-.201.398 0 .1.05.45.1.598 0 .05.101.1.201.15.15.1.3.149.451.249 0 0-.15-.448-.2-.697-.05-.15.05-.35-.05-.5zm1.053 1.544c.051-.199.202-.298.202-.647 0 0-.05-.249-.1-.349a.68.68 0 0 0-.252-.298c-.05 0-.15-.1-.2-.05 0 0-.05.398-.1.448.1.15.2.25.25.398.05.15.1.349.2.498zm1.356.798c.15-.15 0-.4 0-.548-.051-.15 0-.3-.051-.449a.276.276 0 0 0-.25-.149c-.101 0-.351-.15-.351-.05-.251 0-.05.249-.05.398 0 .2.5.698.5.698.101.05.101 0 .202.1zm-4.816-4.233c.1-.15.402-.448.55-.649.103-.099.304-.348.804-.597.05-.2.1-.348.1-.547-.501.15-.853.25-.951.348-.252.15-.353.25-.603.4 0 .297 0 .297.05.447l.05.598zm7.776 5.626c-.151-.1-.402-.398-.551-.548-.102-.1-.052-.248-.153-.348-.099 0-.2 0-.3.05-.151 0-.25 0-.4.05.049.098.049.199.15.248.2.2.2.25.4.548.051.1.303.15.502.15.102 0 .3-.1.352-.15zm-1.957-2.738c-.202.05-.603.099-.603.249-.05.149 0 .298 0 .398.052.1.052.199.052.349 0 .099-.052.199 0 .349.05-.1.3-.2.35-.3.1-.149.201-.248.251-.398.05-.15 0-.398-.05-.647zm.651-.1c-.15.1-.248.15-.248.249 0 .199.048.398.048.498 0 .15 0 .25.05.299.15.05.201.05.402.149 0 .05.2.15.2.15s-.1-.448-.15-.648v-.797c-.201.05-.25.1-.302.1zm-5.817-4.681c.05-.05.602-.448.65-.498.101-.1.152-.05.2-.149 0-.299.102-.299.052-.397-.052-.101-.451 0-.552 0-.25.048-.702.197-.702.297-.05.15-.05.498-.05.549.05.148.05.298.099.447.153-.149.2-.199.303-.249zm10.734 8.863a1.103 1.103 0 0 0-.25-.148v.198c0 .199.048.25.048.35 0 .099.152.796.152.994.25.05.25.25.4.35 0 0-.1-.598-.1-1.345 0-.05-.149-.349-.25-.399zm-2.96-1.841c.201.148.602.099.954.05-.202-.15-.251-.25-.352-.35-.151-.1-.25-.149-.451-.348h-.65c.098.249.147.399.5.648zm-1.957-3.238c.101-.1.2-.298.2-.348.102-.199.102-.448.102-.647-.4-.25-.903-.299-1.404-.299-.452 0-.954.05-1.455.399.05.2.1.348.2.547.05 0 .1.1.15.1.1-.1.202-.25.35-.299v.199c0 .15 0 .248.053.399 0 .148.15.148.35.148.2 0 .252-.348.252-.398 0 0 .05.199.35.349 0 0 .35 0 .35-.05.052-.25.102-.299.052-.498 0 0 .3.2.45.398zm1.556 1.843c-.2-.299-.25-.597-.25-.647-.1-.1.1-.448-.151-.448a4.44 4.44 0 0 0-.4-.15c-.052.15-.052.448 0 .598 0 .149.249.598.35.647.05.05.3.05.352.05.05-.05.1-.05.1-.05zM61.178 8.63c.1-.148.1-.148.2-.25.203-.148.304-.248.554-.448.05-.1.1-.05.25-.149.05-.05.1-.1.1-.15 0-.099-.05-.199-.1-.297-.05-.1-.15-.35-.15-.4 0-.398.05-.497.1-.846-.2-.05-.45-.05-.551.15-.1.15-.1.298-.1.449 0 .247.05.447.1.745-.202.15-.302.25-.502.35.05.298.099.846.099.846zm10.084 7.22c-.1-.1-.2-.198-.35-.298-.203-.05-.301-.15-.404-.349-.05-.1-.099-.2-.2-.3-.099 0-.149.051-.249.1-.101.1-.303.1-.403.25.05.1.1.2.201.299.051.05.1.15.302.248.35.199.452.249.452.249.3.05.65-.199.65-.199zm-2.408-2.241s.049.25.15.498c.051.1.15.2.202.2.098.05.3.099.45.099v-.1c-.15-.15-.352-.497-.352-.597-.098-.05-.098-.05-.249-.05-.051-.05-.152-.05-.2-.05zm4.514 3.585c-.05.15-.2.25-.2.449 0 0 .251.248.301.398.05.1 0 .548.05.647.15-.15.252-.2.252-.398-.051-.05-.101-.449-.152-.747 0-.1-.15-.248-.251-.349zm4.014 3.486c-.252 0-.552.299-.752 1.244-.05.35-.1.65-.05.847l.45.05c.1-.149.1-.398.201-.597 0-.1.102-.1.2-.1.101.05.303.299.402.398.05-.099.15-.298.15-.448 0-.05-.15-.15-.2-.15-.15-.099-.25-.198-.45-.198-.051-.2.25-.449.25-.449.35 0 .702.398.702.398.1-.05.15-.198.251-.298a1.352 1.352 0 0 0-1.154-.697zm-2.607-2.639c-.051-.1-.102-.25-.151-.349 0-.05 0-.149-.051-.298 0 0-.352.249-.402.298.2.25.101.4.15.598 0 .099.202.15.252.299 0 .049-.099.497-.099.497.3-.398.3-.896.3-1.045zm4.011 4.382a.78.78 0 0 1-.2.348c.05.05.151.05.2.05h.504c.047-.05.047-.199.098-.299 0-.099.05-.2.05-.348h-.302c-.15 0-.3.1-.35.249zm-6.822-7.27h.25c.102 0 .102-.199 0-.199-.35-.1-.651-.199-.852-.498-.05.05-.351.149-.45.249 0 0 .099.25.35.498.15.15.452.05.702-.05zm-2.208-1.693c.152.2.303.349.453.498.05.1.2.1.3.1h.502c.15-.051.25-.051.351-.15-.2-.1-.45-.2-.653-.3-.2-.099-.35-.198-.5-.348-.101 0-.15.05-.202.05-.099.051-.15.1-.25.15zm-5.266-2.39s.2-.049.35-.049c.102 0 .202 0 .302.05-.051.05-.252.149-.252.149-.098.05-.15.099-.3.148-.05-.099-.1-.297-.1-.297zm0-1.096c.1-.15.302-.249.452-.298.2-.05.149-.448.149-.498.051-.1 0-.25 0-.35-.1.051-.1 0-.3.051-.202 0-.301-.1-.4-.2-.103-.099-.352-.298-.452-.496.249-.051.451-.051.702-.051h.652c.149.05.25.15.25.249 0 .05-.05.348-.05.398-.051.299-.051.399-.1.847v.15c-.05.1-.251.149-.351.248-.05.15-.05.25-.201.299-.152.05-.252.199-.351.15-.15-.1-.1-.35 0-.5zm-.853-2.54c-.1-.098-.302-.248-.402-.447-.149-.2-.1-.398-.1-.449.1-.298.451-.398.653-.448.1 0 .2 0 .35.1.201.1.302.1.402.448 0 .051 0 .1-.05.1 0 0-.302.198-.402.299-.25.149-.3.397-.45.397zm1.505-.049c.15-.1.3-.199.401-.199.101-.05.3-.1.3 0 0 .2-.15.299-.3.497-.101.149-.15.05-.401.05h-.252c0-.148.102-.199.252-.348zm2.057-.199c.1 0 .952.2.4.448-.1.1-.35.05-.601.05 0-.1 0-.299-.1-.299-.102-.1-.25-.1-.25-.199-.203-.2.3-.05.551 0zm.952-.996c.15-.15.353-.2.552-.15.251.05.3.1.402.2.15.2.1.597.05.846-.05.15-.2.25-.35.25-.252-.299-.503-.499-.854-.599-.05-.199.102-.398.2-.547zm.302 2.092c-.05.099-.151.148-.251.2-.051 0-.1.098-.1.148-.101.15-.251.199-.451.199-.101 0-.302 0-.402-.2 0 0 .05.599.05.748 0 .05.05.05.05.05.2.049.25.249.35.348 0 0 .051.05.102.05.2.149.652.348.451.348 0 .1-.15.349-.2.349-.152-.149-.401-.249-.603-.349l-.15-.298c-.1-.1-.15-.1-.301-.2 0-.347-.05-.347-.05-.696 0-.05-.1-.598-.1-.598 0-.05.15-.198.3-.25 0 0 .955 0 1.405.052 0 0-.05.1-.1.1zM67.9 11.37c-.2-.05-.35-.199-.602-.199 0-.148 0-.148.051-.198.302-.05.452.05.602.1 0 .05-.05.297-.05.297zm-3.21.697c.15 0 .302-.148.452-.199.3-.099.552-.198.852-.248.102-.051.102-.15.102-.25.05-.099.05-.099.05-.248 0-.05-.201-.099-.302-.3-.1-.149 0-.298-.05-.298-.15.1-.352.199-.401 0-.05-.149-.05-.349.1-.398a2.106 2.106 0 0 1 1.557 0c.099 0 .15.1.15.199.049.1 0 .199-.102.298-.15.05-.302-.149-.302 0 0 .15-.099.35-.35.45-.05.05 0 .198.051.348 0 .05 0 .148.05.148.2.051.503.1.652.2.2.1.551.397.602.349.15-.1.2-.25.302-.349.55.25 1.002.397 1.705.847.1 0 .1-.2.1-.3a35.212 35.212 0 0 0-1.104-.597c-.2-.05-.3-.15-.502-.199v-.398c.352.1 1.052.15 1.757.548.049-.15.15-.25.1-.3-.805-.397-1.404-.547-1.907-.547 0-.05-.101-.1 0-.15.15-.1.2-.149.252-.199.15-.199.251-.398.3-.597.15-.299.3-.2.402-.847-.151 0-.202.1-.352.15.049-.15.1-.299.1-.449.05-.299.15-.497.15-.847.151-.05.403-.199.452-.397 0-.05 0-.2.051-.4 0-.297.05-.547-.05-.746 0-.05-.351-.547-.603-.696-.35-.15-.501-.1-.752-.05-.302 0-.704.298-.704.846-.299 0-.902.05-1.253.349-.3-.15-.551-.2-.803-.25h-.45a.944.944 0 0 0-.351-.547c-.25-.149-.553-.348-.904-.348-.15 0-.3-.05-.451.05-.15.099-.402.198-.451.397-.101.249-.201.448-.201.698 0 .249.15.448.301.697.049.1.1.1.2.149.05 0 .252.1.301.15.05.048-.05.199-.05.498 0 .248 0 .248.05.447 0 .2.05.399.1.548-.15 0-.25-.15-.35-.05 0 .1.1.35.2.548.251.25.501.498.653.797 0 .05 0 .149.049.149-.351.05-.701.05-1.053.15-.301.1-.652.25-.952.398 0 .2.049.35.049.35.05 0 .502-.25.903-.35.652-.198 1.004-.149 1.004-.149.049.1.1.248.049.299-.602.249-1.204.548-1.757.896.052.1 0 .249.102.348a13.668 13.668 0 0 1 1.705-.846c.201-.05.201 0 .302 0 .05.05.15.248.25.248zm9.531 4.483s-.1-.2-.1-.25c-.05-.1-.1-.25-.25-.299 0-.05-.05.2-.1.3-.051.099-.051.048-.152.249.1.148.152.248.252.397 0 .05.15.25.15.25s.2-.4.2-.499v-.148zm6.422 5.726h-.251c-.1-.05-.15-.05-.2 0-.151.149-.151.398-.252.548h.603c.1-.101.2-.15.2-.35 0-.049 0-.15-.1-.198zm-7.024-6.822c0-.448-.1-.448-.3-.647 0 0-.151.299-.251.448.2.2.25.448.25.448.201-.199.201-.15.301-.249zm1.957 1.742a.57.57 0 0 0-.15-.398 1.785 1.785 0 0 1-.1-.449 10.378 10.378 0 0 0-.352-.547c-.1-.099-.1-.348-.15-.497l-.603.099c.302.398.554.796.702 1.195.051.15.504 1.644.504 1.644.149-.05-.052-.798 0-.847.048-.1.048-.15.149-.2zm-3.812-3.934c-.05-.1-.15-.298-.201-.348-.05-.1-.1-.199-.152-.249-.049-.049-.25 0-.35 0-.1 0-.15 0-.25.05.1.1.2.448.25.448.05.1.05.149.151.2.25.049.451 0 .702.099.1-.15-.1-.15-.15-.2zm1.354 1.096s-.602-.349-.703-.498c-.15 0-.15 0-.3.149-.102 0-.15.051-.2.15.15.1.2.15.35.249.051.05.1.05.251 0h.402c.099 0 .2.05.2-.05zm8.478 7.37s-.05.15-.1.248c-.101.25-.15.349-.15.498.15.102.2.05.4.05.1 0 .2.052.251.052.1-.052 0-.151 0-.2-.05 0-.25-.45-.401-.648zm-5.367-4.283c.2-.148.25-.448.3-.597.05-.15-.05-.448-.1-.547-.15 0-.25-.1-.352-.1-.1 0-.15-.25-.3-.2.05.1.15.598.2.697.052.05.252.4.252.747zm3.862 2.739c0-.05-.151-.149-.2-.149 0-.05-.052-.25-.102-.298-.1-.05-.1-.1-.2-.1 0 .05 0 .1-.05.199 0 .1-.101.149-.05.248.05.1.1.1.2.15.05.05.203.448.251.498.05-.05.05-.35.151-.548zm-8.729-8.117c.152 0 .251.1.352.1 0-.149-.051-.248-.1-.398-.051-.249-.152-.399-.203-.547 0-.15 0-.25-.049-.349-.05 0-.1 0-.15-.05-.15 0-.352-.05-.352-.05 0 .15.051.398.051.548 0 .05.2.498.25.547.051.1.1.15.201.2zm4.765 3.287c-.05-.149-.2-.2-.3-.299 0 0-.65-.248-.752-.248-.1.049.25.248.3.348.201.2.702.647.702.647l.05-.448zm-6.17-6.274c-.049.05-.1.15-.1.199-.1.15-.25.249-.151.399.05.2.05.398.202.548.151.15.35.099.55.248 0 0-.15-.647-.249-.946-.05-.198-.15-.298-.251-.448zm9.632 3.784c-.652-.646-1.355-1.045-2.057-1.045-.6 0-1.053.447-1.053.896 0 1.793.703 2.939 1.154 3.934.15.249.2.448.2.697.05.648-.5 1.842-.852 2.49-.05-.05-.302-.1-.502-.1-.502 0-.702.348-.803.647-.15 0-.25-.1-.402-.1-.6-.05-1.103.498-1.103 1.096 0 .646.15.996.402 1.445h.502c-.051-.15-.201-.898-.251-1.096a.694.694 0 0 1 .2-.648c.201-.3.702-.198.702-.198-.15.248-.35.646-.35 1.044.05.25.1.65.251.898h.402c.098-.3 0-.548 0-.799 0-.147 0-.297.048-.447 0-.1.251.2.251.2s.201-.25.201-.449c0-.149-.3-.1-.35-.249-.052-.149.1-.498.1-.498.3-.2.55-.149.652-.149.15 0 .2.049.402.049.15 0 .2-.298.2-.447.05.05.201.149.25.149.15.05.2.05.351.1.201.099.402.198.603.398v-.05c-.05-.199.05-.448-.1-.548 0 0-.252-.2-.453-.299-.1-.099-.25-.099-.3-.198-.051-.05-.051-.1-.051-.2s.05-.248.1-.248c.1-.05.151 0 .352.098.2.1.401.25.552.35 0 0 .05.1.05.05.2-.1.2-.15.2-.449-.2-.25 0-.298-.3-.498-.1 0-.653-.2-.653-.2 0-.099.15-.347.15-.347.051-.05.15-.05.202.05.3.198.5.198.804.298.047-.149.047-.248-.052-.348-.102-.15-.251-.3-.352-.35-.2-.05-.3-.099-.451-.148 0-.15-.05-.299-.1-.498 0-.1.1-.05.201-.05.201-.05 1.053.25 1.053.25 0-.2-.05-.35-.151-.45-.1-.1-.2-.199-.451-.298-.35-.1-.652-.05-.903-.2-.2-.199-.251-.248-.301-.448.15-.049.401-.099.552-.099.25 0 .402-.05.703.05.098.05.451.349.602.349 0 0-.101-.399-.202-.548-.148 0-.4-.3-.5-.349-.503-.2-.603-.1-.905-.05-.15.05-.299 0-.45 0-.05-.099.1-.249.05-.348 0-.05-.202-.1-.202-.199 0 0 .803-.1 1.105-.05.1.05.401.25.502.25 0 0 .098-.35-.051-.648-.25-.05-.501 0-.702-.05-.2-.05-.402 0-.55 0-.153 0-.304-.05-.453-.05a.808.808 0 0 1-.152-.448s1.255-.05 1.356-.1c-.051-.05-.15-.099-.201-.2-.2-.348-.352-.397-.602-.397-.15 0-.5.148-.702.099 0-.398.201-.746.501-.746.602 0 1.204.248 1.706.795 1.255 1.296 1.906 3.735 1.906 5.478 0 .797-.1 1.544-.2 2.141.15.05.25.05.4.05.152-.598.302-1.394.302-2.141 0-2.54-.904-4.68-2.007-5.876zm-7.576-2.092c.102.4.252.898.303 1.494 0 .15-.05.3 0 .45l.7.248s-.098-.598-.199-1.294c-.1-.597-.15-.797-.3-1.047-.102.05-.151.05-.252.05-.15.05-.252.1-.252.1zm1.657 2.89c.1.1.15.298.2.647.05.199.152.249.25.547.152-.099.403-.05.403-.05 0-.248-.151-.497-.151-.546-.051-.101-.2-.4-.251-.499.05 0 .2.2.452.2.05 0 .202.048.301 0 0 0 .15.1.15.198.1.15.1.249.152.399.098 0 .15 0 .2-.05.2 0 .3-.05.3-.05-.049-.1-.1-.198-.1-.3a6.09 6.09 0 0 1-.15-.347l.902-.15c0-.15-.05-.35-.2-.449-.452.151-.952.2-1.304.2-.503 0-1.004-.1-1.706-.398-.05.1 0 .298 0 .298.301.25.301.1.552.35zM62.583 5.445c.352-.2.953-.55 1.154-.748.051.1.653.45.904.597.2.15.4.2.601.3.1-.15.2-.3.301-.648.15.1.351.1.501.15 0 .198 0 .398.052.598 0 .099.1.049.3-.05.301-.1.602-.15.753-.2.35-.199.55-.597.852-.597.251 0 .702.149.803.248.15.051.251.1.402.1.2 0 .35-.199.5-.3-.45-.297-.95-.596-1.454-.795-.301.248-.502.447-.652.447-.151 0-.05-.298-.05-.497-.151 0-.252 0-.401-.05-.1.348-.151.797-.401.896-.1.05-.152.05-.201.05v-.399c0-.05.2-.397.15-.447 0 0-.452.099-.551.15-.05.05-.352.199-.402.199 0 0-.151-.05-.2-.05-.151-.1-.251-.1-.402-.2-.2.598-.252.747-.252.648 0 0-.702-.449-.951-.747-.653.099-.653.2-1.205.398-.2.2-.502.448-.702.747-.1.2-.201.3-.3.498l.5.2c.05-.051.301-.399.35-.498zm17.309 13.543c.149.05.249.398.35.498.15.2.1-.348.05-.448 0-.05 0-.448-.1-.448-.051-.05-.1-.2-.151-.249-.05.149 0 .249 0 .398 0 .1-.202.198-.15.249zM71.112 8.83c-.05 0-.2-.05-.403-.1h-.25c.05.15.2.3.25.399 0 .05 0 .2.052.298.1 0 .25.05.35.1.05 0 .351.05.452.15.1 0 .45.398.502.448.15.1.3.199.4.15.1 0 0-.15 0-.2-.2-.299-.35-.846-.4-.846-.15-.05-.252 0-.452-.1-.1-.1-.401-.249-.501-.3zm-.804-1.195c.051.1.15.1.252.15.1.098.2.148.351.248.2.2.301.45.551.647.1.05.151.1.201.1.051 0 .251.15.301.2 0-.399-.15-.697-.25-.897 0-.05-.051-.1-.151-.15-.152-.149-.301-.298-.351-.298-.15-.15-.25-.298-.401-.448-.151 0-.251.15-.352.2-.05.099-.25.199-.151.248zm-.2-1.245c0 .15.051.3.101.448.25.15.552.249.552.249.05-.15-.052-.298-.052-.448-.098-.349-.25-.697-.3-1.095v-.2c-.2-.099-.402-.149-.653-.249 0 0 0 .3.101.45.1.248.25.646.25.845zm10.636 1.294l-.201-.249.55-.149.252.847-.601-.449zm-1.807-.447l-.3.198-.403-.298.452-.249.502.349h-.25zm7.826 9.759c.05-.299.05-.597.05-.797a.548.548 0 0 0-.35-.15c0-.148-.052-.347 0-.546.098 0 .3.05.3 0 0-.299-.05-.598-.1-.747-.102-.05-.252-.1-.403-.15a.925.925 0 0 0-.1-.398c.152-.05.251-.05.351-.05 0 0-.1-.448-.149-.648-.102-.05-.252-.05-.352-.05-.05-.098-.1-.199-.15-.348.1-.05.201-.05.3-.099-.099-.249-.15-.349-.25-.498h-.35c-.05-.1-.1-.2-.1-.298.05-.052.149-.1.2-.15a1.08 1.08 0 0 0-.252-.398c-.1 0-.2.049-.3 0-.05 0-.201-.2-.15-.2.049-.1.15-.15.2-.199-.151-.198-.2-.348-.352-.448-.1 0-.2 0-.3.05 0 0-.101-.15-.15-.2-.152 0 .1-.249.1-.249-.151-.198-.3-.348-.501-.547-.103 0-.203.099-.252.099 0 0-.201-.15-.201-.199 0-.1.2-.149.2-.149s-.351-.398-.601-.548c-.1.05-.15.05-.252.05-.15-.15-.35-.249-.35-.249s.15-.1.15-.15c-.25-.149-.351-.247-.552-.398-.2-.1-.3-.25-.401-.399-.35-.547-.802-1.343-1.907-1.493 0 0 .252.349.403.598 0 .049 0 .049-.202.049h-.35c-.101-.15-.151-.199-.202-.298-.1-.2-.148-.25-.25-.349-.201-.15-1.205.398-2.058.598.203.248.402.397.452.497.251.25.602.698.853 1.046a.745.745 0 0 1 .202-.15c.653-.099.653-.247.653-.247s-.504-.4-.154-.4c0 0 .252.049.353-.05.25-.05.552-.1.703 0 .2.15.3.349.45.499-.1 0-.199-.05-.3-.05-.301-.05-.603 0-.853.05 0 0 .403.348.501.497-.098-.05-.401 0-.401 0-.151.05-.351.1-.401.1-.15.05-.302 0-.402.05.2.1 1.106.449 1.556.449.402 0 .652-.051 1.003-.2.05-.05.15-.1.2-.05.202.05.302.1.402.199 1.305.797 2.76 2.69 3.21 3.685.452.946.702 1.992.702 2.987.05 1.346-.4 2.64-1.303 3.786-.504.646-1.455 1.194-2.459 1.294.302.348.451.895.602 1.394 0 0 .352-.05.553-.149 0-.398-.251-.846-.251-.947 0 0 .3-.199.551-.199.05.15.2.398.403.748.2-.1.35-.2.5-.35 0-.249-.15-.547-.251-.846.352-.149.553-.2.553-.2.1.15.35.299.4.45 0 0 .251-.25.353-.499-.102-.2-.252-.349-.352-.548l.401-.447s.25.199.35.299c.152-.2.302-.4.351-.649-.25-.248-.35-.248-.4-.398.1-.15.15-.348.25-.498.15.05.252.15.353.199.098-.199.2-.498.2-.697-.102-.1-.252-.149-.35-.249l.098-.498s.252.05.352.05z"/>
    </g>
</svg>
