<?xml version="1.0" encoding="UTF-8"?>
<svg width="40px" height="40px" viewBox="0 0 40 40" version="1.1" xmlns="http://www.w3.org/2000/svg" xmlns:xlink="http://www.w3.org/1999/xlink">
    <!-- Generator: Sketch 53.2 (72643) - https://sketchapp.com -->
    <title>icons / ic-40-greyfont-pig copy</title>
    <desc>Created with Sketch.</desc>
    <g id="icons-/-ic-40-greyfont-pig-copy" stroke="none" stroke-width="1" fill="none" fill-rule="evenodd">
        <path d="M33.3240301,16.3437379 L32.8140084,16.3437379 C32.077188,14.4172865 30.8245223,12.6734072 29.1436777,11.263037 L29.1436777,11.2504458 C28.8919327,10.3755945 29.0806431,9.43739376 29.691473,8.46165554 C30.0062526,7.95785072 30.024982,7.34733559 29.7353848,6.83093958 C29.4520044,6.32091785 28.9171151,6 28.3376844,6 C28.2685116,6 28.1993388,6.0061382 28.1363041,6.01259119 C25.8006392,6.30218846 24.4029388,7.36606498 23.5971816,8.35470916 C22.1994813,7.9704419 20.7515736,7.77527852 19.2784835,7.77527852 C15.4820836,7.77527852 11.9125611,9.07217067 9.21820468,11.4268798 C6.49827243,13.8064566 5,16.9795141 5,20.3602476 C5,21.2354924 5.10080818,22.1103437 5.30864145,22.9667804 C5.30864145,22.9793716 5.31477965,22.998101 5.32091785,23.0106922 C5.32091785,23.0106922 5.32737083,23.0232834 5.33350904,23.0485444 C5.54779528,23.9111194 5.86257493,24.7545714 6.27170978,25.5541118 C6.94525953,27.0210636 7.75739102,28.2424086 8.67040939,29.1867476 C9.96730154,30.521492 10.187726,32.2084748 10.2190466,32.8884776 L10.2190466,33.2850212 C10.2190466,33.3166566 10.2190466,33.3480558 10.2251848,33.3732382 C10.3008106,34.1475961 10.9620839,34.7457562 11.7425801,34.7457562 L16.4328755,34.7457562 C17.2702681,34.7457562 17.956409,34.0593792 17.956409,33.2223014 L17.956409,32.9075217 C18.6867765,32.9641034 19.4232822,32.9766946 20.1598666,32.9388423 L20.1598666,33.2284396 C20.1598666,34.0658321 20.8459288,34.7518944 21.6833214,34.7518944 L26.3736955,34.7518944 C27.2106946,34.7518944 27.8971503,34.0658321 27.8971503,33.2284396 L27.8971503,32.0827204 C27.9032885,31.8119312 28.0102349,30.5276302 29.2254417,29.4197632 C29.2820234,29.3693198 29.3449793,29.3188763 29.4015609,29.2685116 L29.4141521,29.2559204 C29.4267433,29.2432505 29.4458662,29.2306593 29.4584574,29.2180682 C31.0323556,27.8080127 32.2097102,26.0893158 32.8893194,24.2132291 L33.3301683,24.2132291 C34.5262523,24.2132291 35.5023053,23.2372548 35.5023053,22.0411709 L35.5023053,18.5407425 C35.4958523,17.3194762 34.5201141,16.3437379 33.3240301,16.3437379 Z M33.98491,22.0159885 C33.98491,22.3811329 33.6889384,22.6771832 33.3240301,22.6771832 L32.3418389,22.6771832 C32.0080151,22.6771832 31.7184965,22.8911546 31.6176097,23.2120725 C31.057538,25.0380305 29.9493562,26.7250133 28.4197632,28.091157 L28.4006404,28.1102012 L28.2306593,28.261138 C28.2245211,28.267591 28.2180682,28.2737292 28.21193,28.2737292 C26.5624059,29.7720016 26.3924249,31.5349251 26.3798337,32.0384938 L26.3798337,33.2158484 C26.3798337,33.2223014 26.3736955,33.2284396 26.3672425,33.2284396 L21.6771832,33.2284396 C21.6707302,33.2284396 21.664592,33.2223014 21.664592,33.2158484 L21.664592,32.1141196 C21.664592,31.9001482 21.576375,31.6985318 21.4125322,31.5537332 C21.2741865,31.4279787 21.0915356,31.3584911 20.9089634,31.3584911 C20.8837811,31.3584911 20.8585987,31.3584911 20.8271994,31.3649441 C20.3108034,31.4215257 19.7885053,31.4467081 19.2720306,31.4467081 C18.6111507,31.4467081 17.9437391,31.4027963 17.2951357,31.3145793 C17.0812429,31.28318 16.8608185,31.3523529 16.6972904,31.4971515 C16.5334476,31.6419501 16.4390137,31.8497047 16.4390137,32.0636762 L16.4390137,33.2158484 C16.4390137,33.2223014 16.4328755,33.2284396 16.4264225,33.2284396 L11.7364419,33.2284396 C11.7299889,33.2284396 11.723772,33.2223014 11.723772,33.2158484 L11.723772,32.8318959 C11.6859984,31.9880504 11.4216622,29.8476275 9.7468771,28.1289306 C8.94733679,27.3042079 8.2295605,26.2215233 7.61904537,24.9055083 C7.61259239,24.8929171 7.61259239,24.8867789 7.60645418,24.8806407 C7.24744799,24.1754556 6.9643037,23.4389499 6.7817315,22.6833214 C6.7817315,22.6771832 6.77527852,22.6707302 6.77527852,22.664592 L6.77527852,22.6520008 C6.59262763,21.9025104 6.50472541,21.1346055 6.50472541,20.3729174 C6.50472541,14.2660349 12.2337937,9.29259512 19.2720306,9.29259512 C20.776756,9.29259512 22.2437078,9.51915777 23.6411721,9.95992798 C23.9624047,10.0608149 24.3085049,9.94088381 24.4976088,9.66395641 C25.0576805,8.83301683 26.1720004,7.79432269 28.3124234,7.5234548 C28.3628668,7.5173166 28.3945022,7.54871587 28.4070933,7.57389824 C28.4323544,7.6178887 28.4133102,7.65566225 28.4006404,7.66825344 C27.5633265,9.00299784 27.3180345,10.3881857 27.6828641,11.6721719 C27.6828641,11.6786249 27.689317,11.691216 27.689317,11.6973542 C27.6954553,11.9177787 27.7963421,12.125612 27.9727761,12.2642724 C29.68502,13.6490668 30.9253305,15.4056159 31.5611067,17.3446585 C31.6619149,17.6529852 31.9514335,17.8672714 32.278883,17.8672714 L33.3175772,17.8672714 C33.6827216,17.8672714 33.978457,18.1630069 33.978457,18.5281513 L33.978457,22.0159885 L33.98491,22.0159885 Z" id="Fill-1" fill="#FF6600"></path>
    </g>
</svg>