<?xml version="1.0" encoding="UTF-8"?>
<svg width="40px" height="40px" viewBox="0 0 40 40" version="1.1" xmlns="http://www.w3.org/2000/svg" xmlns:xlink="http://www.w3.org/1999/xlink">
    <!-- Generator: Sketch 53.2 (72643) - https://sketchapp.com -->
    <title>icons / ic-40-greyfont-location copy</title>
    <desc>Created with Sketch.</desc>
    <g id="icons-/-ic-40-greyfont-location-copy" stroke="none" stroke-width="1" fill="none" fill-rule="evenodd">
        <path d="M20.375,6 C14.103,6 9,11.103 9,17.375 C9,27.385875 19.48775,33.62025 19.934,33.881 C20.069625,33.95975 20.22275,34 20.375,34 C20.52725,34 20.680375,33.95975 20.816,33.881 C21.26225,33.62025 31.75,27.385875 31.75,17.375 C31.75,11.103 26.647,6 20.375,6 Z M20.374125,32.09075 C18.431625,30.82025 10.75,25.292875 10.75,17.375 C10.75,12.068125 15.068125,7.75 20.375,7.75 C25.681,7.75 30,12.068125 30,17.375 C30,25.275375 22.316625,30.817625 20.374125,32.09075 Z M20.375,14.75 C18.926,14.75 17.75,15.926 17.75,17.375 C17.75,18.824 18.926,20 20.375,20 C21.824,20 23,18.824 23,17.375 C23,15.926 21.824,14.75 20.375,14.75 Z" id="Shape" fill="#FF6600"></path>
    </g>
</svg>