<?xml version="1.0" encoding="UTF-8"?>
<svg width="40px" height="40px" viewBox="0 0 40 40" version="1.1" xmlns="http://www.w3.org/2000/svg" xmlns:xlink="http://www.w3.org/1999/xlink">
    <!-- Generator: Sketch 53.2 (72643) - https://sketchapp.com -->
    <title>icons / ic-40-greyfont-assist copy</title>
    <desc>Created with Sketch.</desc>
    <g id="icons-/-ic-40-greyfont-assist-copy" stroke="none" stroke-width="1" fill="none" fill-rule="evenodd">
        <path d="M13.0102234,17.2760429 C13.5779372,17.2760429 14.0381317,17.7362375 14.0381317,18.3039513 L14.0381317,27.9662895 C14.0381317,28.5340033 13.5779372,28.9941978 13.0102234,28.9941978 L10.9544067,28.9941978 C8.68725214,28.9941978 6.84277344,27.1497191 6.84277344,24.8825645 L6.84277344,21.3876762 C6.84277344,19.8685819 7.67152452,18.540216 8.89997776,17.8283895 C8.92968431,14.9064059 10.0806847,12.1637409 12.1501211,10.0943044 C14.2468999,7.99752565 17.0347415,6.84277344 20,6.84277344 C22.3134619,6.84277344 24.5308657,7.54761018 26.4124519,8.88106425 C28.2517397,10.1845548 29.6357668,11.9866837 30.4148185,14.0926623 C30.6117658,14.6251188 30.3397812,15.2163716 29.8073761,15.4133703 C29.2748682,15.6102661 28.6836153,15.338333 28.4866681,14.8059278 C27.1795285,11.2725444 23.7690315,8.89859009 20,8.89859009 C15.2369812,8.89859009 11.3222437,12.5990601 10.9791279,17.2760429 L13.0102234,17.2760429 Z M11.9823151,26.9383812 L11.9823151,19.3318596 L10.9544067,19.3318596 C9.82082944,19.3318596 8.89859009,20.2540989 8.89859009,21.3876762 L8.89859009,24.8825645 C8.89859009,26.0161418 9.82082944,26.9383812 10.9544067,26.9383812 L11.9823151,26.9383812 Z M29.0455933,17.2760429 C31.3127479,17.2760429 33.1572266,19.1205216 33.1572266,21.3876762 L33.1572266,24.8825645 C33.1572266,27.1497191 31.3127479,28.9941978 29.0455933,28.9941978 L28.0176849,28.9941978 L28.0176849,29.0455933 C28.0176849,30.7459592 26.6343259,32.1293182 24.93396,32.1293182 L21.7988396,32.1293182 L21.7988396,32.0967335 C21.44822,32.7290513 20.7742206,33.1572266 20,33.1572266 C18.8646239,33.1572266 17.9441833,32.2367861 17.9441833,31.1014099 C17.9441833,29.9660338 18.8646239,29.0455933 20,29.0455933 C20.7742206,29.0455933 21.44822,29.4737685 21.7988396,30.1060863 L21.7988396,30.0735016 L24.93396,30.0735016 C25.5007486,30.0735016 25.9618683,29.6123819 25.9618683,29.0455933 L25.9618683,27.9662895 L25.9618683,25.3451233 L25.9618683,18.3039513 C25.9618683,17.7362375 26.4220628,17.2760429 26.9897766,17.2760429 L29.0455933,17.2760429 Z M31.1014099,24.8825645 L31.1014099,21.3876762 C31.1014099,20.2540989 30.1791706,19.3318596 29.0455933,19.3318596 L28.0176849,19.3318596 L28.0176849,25.3451233 L28.0176849,26.9383812 L29.0455933,26.9383812 C30.1791706,26.9383812 31.1014099,26.0161418 31.1014099,24.8825645 Z" id="Combined-Shape" fill="#FF6600"></path>
    </g>
</svg>