<?xml version="1.0" encoding="UTF-8"?>
<svg width="40px" height="40px" viewBox="0 0 40 40" version="1.1" xmlns="http://www.w3.org/2000/svg" xmlns:xlink="http://www.w3.org/1999/xlink">
    <!-- Generator: Sketch 53.2 (72643) - https://sketchapp.com -->
    <title>icons / ic-40-main-exit</title>
    <desc>Created with Sketch.</desc>
    <g id="icons-/-ic-40-main-exit" stroke="none" stroke-width="1" fill="none" fill-rule="evenodd">
        <path d="M19.7430478,29.5680414 L10.9357389,29.5680414 C10.3955541,29.5680414 9.95717463,29.1296159 9.95717463,28.5894771 L9.95717463,10.9749054 C9.95717463,10.4347206 10.3956002,9.99634113 10.9357389,9.99634113 L19.7430478,9.99634113 C20.2841991,9.99634113 20.7216121,9.55892814 20.7216121,9.01777683 C20.7216121,8.47662553 20.2841991,8.03912048 19.7430478,8.03912048 L10.9357389,8.03912048 C9.31716357,8.03912048 8,9.35633007 8,10.9749054 L8,28.5894311 C8,30.2080064 9.31716357,31.52517 10.9357389,31.52517 L19.7430478,31.52517 C20.2841991,31.52517 20.7216121,31.087757 20.7216121,30.5466057 C20.7216121,30.0054544 20.2841991,29.5680414 19.7430478,29.5680414 Z" id="Path" fill="#FF6600"></path>
        <path d="M31.2727278,19.0854095 L25.322917,13.2138856 C24.9393061,12.8341868 24.3189013,12.8391114 23.9392026,13.2236887 C23.5595038,13.6082661 23.5634158,14.2277044 23.9490057,14.6074031 L28.2009417,18.8035579 L16.8072628,18.8035579 C16.2661115,18.8035579 15.8286985,19.2409709 15.8286985,19.7821222 C15.8286985,20.3232735 16.2661115,20.7607326 16.8072628,20.7607326 L28.2009417,20.7607326 L23.9490057,24.9568873 C23.5634619,25.3365861 23.5605163,25.9560244 23.9392026,26.3406018 C24.130985,26.5343632 24.3834731,26.6322104 24.6359613,26.6322104 C24.8845375,26.6322104 25.1330676,26.5382752 25.322917,26.3503589 L31.2727278,20.478835 C31.4586652,20.2948767 31.5643365,20.0443215 31.5643365,19.7820762 C31.5643365,19.519923 31.4596317,19.2703803 31.2727278,19.0854095 Z" id="Path" fill="#FF6600"></path>
    </g>
</svg>